PathFileType	4	(X/Y/Z)	 s08c0401.trc
DataRate	CameraRate	NumFrames	NumMarkers	Units	OrigDataRate	OrigDataStartFrame	OrigNumFrames
200	200	6	50	mm	200	1001	2000
Frame#	Time	racr			lacr			c7			jug			rlel			rdr			llel			ldr			s2			lic			ric			lasi			rasi			rpsi			lpsi			rgt			lgt			rth1			rth2			rth3			rth4			rlfc			rmfc			rsh1			rsh2			rsh3			rsh4			rlmal			rmmal			rcal			rtoe			rmt5			lth1			lth2			lth4			lth3			llfc			lmfc			llmal			lmmal			lcal			lmt5			lsh1			lsh2			lsh3			lsh4			ltoe			SBIKE			LBIKE			RBIKE			
		X1	Y1	Z1	X2	Y2	Z2	X3	Y3	Z3	X4	Y4	Z4	X5	Y5	Z5	X6	Y6	Z6	X7	Y7	Z7	X8	Y8	Z8	X9	Y9	Z9	X10	Y10	Z10	X11	Y11	Z11	X12	Y12	Z12	X13	Y13	Z13	X14	Y14	Z14	X15	Y15	Z15	X16	Y16	Z16	X17	Y17	Z17	X18	Y18	Z18	X19	Y19	Z19	X20	Y20	Z20	X21	Y21	Z21	X22	Y22	Z22	X23	Y23	Z23	X24	Y24	Z24	X25	Y25	Z25	X26	Y26	Z26	X27	Y27	Z27	X28	Y28	Z28	X29	Y29	Z29	X30	Y30	Z30	X31	Y31	Z31	X32	Y32	Z32	X33	Y33	Z33	X34	Y34	Z34	X35	Y35	Z35	X36	Y36	Z36	X37	Y37	Z37	X38	Y38	Z38	X39	Y39	Z39	X40	Y40	Z40	X41	Y41	Z41	X42	Y42	Z42	X43	Y43	Z43	X44	Y44	Z44	X45	Y45	Z45	X46	Y46	Z46	X47	Y47	Z47	X48	Y48	Z48	X49	Y49	Z49	X50	Y50	Z50	
1001	5.0050	892.669579	1333.250836	-22.509471	834.739794	1387.011066	-349.371466	860.869301	1414.756920	-161.910965	805.751381	1268.349073	-190.391114	737.833154	1155.073933	152.055200	776.131602	939.952019	-22.401175	703.817800	1178.198249	-490.200272	794.057792	934.151959	-413.099193	286.574661	1263.085691	-237.386792	468.882280	1245.939600	-357.355827	416.015253	1238.300911	-45.567158	471.153986	1184.225498	-319.321931	440.442688	1189.179554	-78.670612	315.237598	1297.169181	-174.954220	332.474049	1301.199629	-270.496442	319.257447	1145.511740	-35.521190	401.991798	1126.098625	-404.289460	416.478242	999.348542	-13.460262	480.937932	938.589393	-6.840653	507.520263	856.036709	-13.348717	512.499780	958.205079	-9.155860	568.121247	749.003882	-23.175725	566.646955	741.922582	-136.119072	484.340271	644.039995	-6.687905	470.835732	556.968343	-28.600497	416.116636	492.274320	-42.753011	501.970831	549.863219	-52.865527	361.219603	386.572438	-61.939141	388.517038	406.186067	-146.381935	279.562074	372.005555	-113.455424	568.293551	311.151215	-87.289592	471.698696	293.825304	-28.488198	454.893347	998.778859	-404.052155	505.517540	928.306206	-393.301692	536.163554	940.970837	-378.463773	515.376590	839.831127	-392.775414	524.599293	711.097611	-375.071804	502.475635	689.356721	-268.004737	180.538986	469.804457	-402.314639	207.909042	454.336337	-317.748096	138.235749	515.292175	-358.830644	154.673461	300.333650	-414.881965	425.652865	630.272390	-404.078378	367.831778	568.333865	-392.190375	285.417581	536.548026	-400.003618	378.722039	552.020724	-354.774962	209.140076	234.487889	-344.582336	-133.055166	946.111265	-219.745843	26.870756	85.247291	-426.379991	18.501756	80.367768	-28.047240	
1002	5.0100	892.253565	1334.069559	-23.681670	834.263467	1387.264344	-351.656697	860.293931	1414.817952	-163.674242	805.565828	1268.004788	-191.772235	737.125913	1155.559617	150.800496	775.987247	939.912681	-22.061851	703.099676	1177.457418	-491.964218	793.910107	933.907915	-413.596702	285.654434	1261.301534	-237.011832	467.982752	1245.055768	-356.583734	416.108044	1235.207039	-45.584207	470.719126	1183.717070	-318.634982	440.380667	1185.614411	-77.434293	314.697251	1294.426388	-174.357111	331.777731	1299.679808	-269.898152	318.531562	1141.819161	-35.802539	402.770504	1125.675537	-404.216071	413.653541	993.872550	-14.375285	476.943464	931.638346	-8.220878	501.872474	848.733640	-14.964489	508.861256	950.813584	-9.961237	561.491955	741.588283	-24.784768	559.892575	734.274324	-137.415552	479.595022	634.870422	-7.551549	467.328689	547.699176	-29.172004	413.500478	482.106989	-42.967850	498.051178	541.015638	-54.087467	359.417589	375.733624	-61.475628	385.154251	395.445534	-146.427021	277.814271	361.141371	-112.984227	566.701020	301.160073	-86.634600	470.140800	282.768064	-28.722804	456.053699	998.403913	-404.275825	507.678078	928.878946	-392.602959	537.714582	942.047334	-377.011494	518.902136	840.628776	-392.383818	530.578879	713.502459	-373.021702	506.394248	690.894449	-266.241807	181.969269	480.254514	-401.995206	209.066543	464.430822	-317.309170	139.507678	525.733902	-358.750369	156.253174	310.863017	-414.937094	430.417255	635.639695	-402.260067	371.606138	575.048286	-391.359377	288.321451	544.783427	-399.093239	382.020055	557.747533	-353.679503	210.842095	245.064140	-344.512532	-133.272589	945.942709	-220.154049	26.791546	85.009430	-426.361419	18.476269	80.337939	-28.065340	
1003	5.0150	891.801551	1335.098296	-25.201620	834.255200	1387.070764	-353.029737	859.815479	1414.977396	-165.532117	805.511034	1267.628941	-193.277202	736.415910	1156.417701	149.490110	775.866807	939.991182	-21.728350	702.036081	1176.967231	-493.823065	793.626016	934.325268	-414.085080	284.957228	1259.655378	-236.080489	466.741014	1244.147431	-355.697974	416.236950	1232.182846	-45.584532	470.123270	1183.187616	-317.927721	440.535266	1181.953092	-76.269578	314.273132	1291.866963	-173.741964	330.816591	1298.298364	-268.933090	318.274384	1137.881272	-35.838792	402.983672	1125.155028	-404.032169	410.941470	988.129873	-15.066907	473.333600	924.372925	-9.685078	496.123794	841.104497	-17.008000	504.935669	943.014370	-9.456745	554.513606	734.163740	-26.655756	550.568782	726.521713	-140.135320	474.647038	625.746759	-8.928859	463.483138	538.123373	-30.739624	410.604884	471.785219	-43.410390	493.908464	532.102707	-55.939288	357.058127	365.110356	-61.150473	382.886648	385.341954	-145.736253	275.506642	350.526873	-112.532089	564.430032	289.042957	-88.339264	467.962706	271.895680	-29.020477	456.996100	997.931497	-404.095495	509.609948	929.516701	-391.402748	539.057847	943.246987	-375.079168	522.591888	841.512026	-391.320557	536.423334	716.311655	-371.041023	513.033150	693.871102	-264.204782	183.831450	490.786556	-401.776375	210.486577	474.577446	-317.202515	141.030166	536.155483	-358.770897	158.495470	321.368603	-414.924931	435.482840	641.055229	-400.620684	375.436918	581.871788	-390.526142	291.605858	553.113671	-398.275421	385.625932	563.252275	-351.976741	213.285908	255.886705	-344.475231	-133.424079	945.810292	-220.615071	26.754884	84.880589	-426.393301	18.417277	80.287210	-28.114891	
1004	5.0200	891.449125	1336.297584	-26.807604	834.246519	1386.821046	-355.339310	859.382832	1415.205648	-167.514564	805.530527	1267.226695	-194.866090	735.538992	1157.642200	148.034609	775.840262	940.227042	-21.492415	700.549926	1176.682490	-495.767288	793.534607	934.491379	-414.411296	284.981244	1258.350012	-234.332370	465.184306	1243.202055	-354.871957	416.757689	1228.979759	-45.366426	469.242232	1182.708114	-317.049529	440.788777	1178.331871	-75.123793	313.763369	1289.198181	-172.674337	329.816305	1296.971058	-267.583194	318.342444	1133.754939	-35.650925	402.657972	1124.547763	-403.598969	408.123898	981.878327	-15.944966	468.559147	916.907920	-10.490445	490.171617	833.165643	-19.356031	501.254598	935.054515	-10.318171	546.760357	725.881358	-29.223767	542.647943	718.630348	-142.030047	469.199751	616.740115	-10.495613	459.333212	529.146131	-32.516158	407.125056	461.750010	-44.109980	489.380127	523.465940	-58.107864	354.111704	354.697314	-60.966830	379.868073	375.127767	-145.572419	272.563912	340.225899	-112.319148	561.532956	278.279906	-88.781034	465.113632	261.244793	-29.290197	457.796945	997.667637	-403.504228	511.558641	930.420555	-389.651185	540.437779	944.673461	-372.817861	526.584326	842.740399	-389.400113	542.331894	719.284725	-368.899642	518.401625	696.395000	-262.444890	186.301918	501.521380	-401.967490	212.490981	484.761636	-316.680448	143.089704	546.586102	-358.990146	161.422156	331.860374	-414.814013	440.470493	646.731227	-399.210754	379.353654	588.159347	-389.145387	295.055656	561.372176	-397.484454	389.248228	569.197375	-350.585082	216.512400	266.576869	-344.364114	-133.494355	945.751544	-221.044329	26.731685	84.767516	-426.428957	18.366882	80.280793	-28.160893	
1005	5.0250	891.101847	1337.497652	-28.749211	834.524350	1386.321388	-357.807713	859.001327	1415.516262	-169.641261	805.602949	1266.783617	-196.485947	734.667203	1159.172052	146.459077	775.906644	940.566886	-21.379506	698.709337	1176.509058	-497.746570	793.552638	934.650844	-414.681198	284.539815	1257.135885	-232.798750	463.278612	1242.365338	-353.938125	417.574069	1226.119290	-44.597601	468.116412	1182.069051	-316.312815	441.312481	1174.512141	-74.107046	313.499009	1286.759751	-170.860595	328.722776	1295.762940	-265.855522	318.753603	1129.416918	-35.213173	401.824720	1123.817234	-402.835637	405.511011	975.662046	-16.729634	464.538947	909.582780	-11.534981	484.612188	825.054839	-21.700243	497.574622	926.530373	-11.881315	539.435459	717.608758	-31.600822	535.649938	710.230784	-143.104915	463.324127	607.477823	-12.999726	454.084876	519.739700	-33.194850	402.929435	451.833377	-45.196945	484.067512	514.806246	-60.193710	350.573339	344.730672	-61.153887	376.132519	364.910361	-145.812119	269.141370	330.349457	-112.403715	557.919929	267.886062	-89.051811	461.590276	250.844427	-29.628959	458.743678	997.606053	-402.261503	513.842724	931.526650	-387.473650	542.129160	946.537193	-370.225365	530.849635	844.253701	-387.030000	548.261823	722.788205	-366.679112	523.741258	699.134199	-260.763813	188.756164	511.980547	-401.783276	214.891683	494.898952	-316.059418	144.870817	556.843076	-359.383180	164.980340	342.353564	-414.849686	445.681622	652.417853	-397.656788	383.976349	596.446129	-390.033507	298.992489	570.839455	-398.894099	392.879181	575.199064	-349.369524	220.675300	277.457262	-344.283295	-133.507590	945.658310	-221.406266	26.690266	84.726104	-426.468474	18.354415	80.272002	-28.176400	
1006	5.0300	890.766995	1338.771627	-30.588440	834.967951	1385.567501	-360.288620	858.758773	1415.804808	-172.032074	805.609130	1266.269109	-197.934665	733.917878	1160.920519	144.872924	776.066381	940.948231	-21.347726	696.674149	1176.183626	-499.646821	793.921589	934.737386	-414.499960	283.825827	1255.568615	-230.711822	461.122560	1241.666514	-352.934756	418.866832	1223.324401	-43.474798	466.781281	1181.597284	-315.644684	441.991837	1170.469372	-73.144379	313.657682	1284.383467	-168.195578	327.609117	1294.609364	-263.757569	319.453129	1125.058420	-34.596803	400.386163	1123.191370	-401.465531	403.024098	969.509658	-17.436864	461.248561	902.088479	-12.803033	478.655660	817.082870	-24.377223	493.840716	917.981502	-13.670388	531.462807	709.180427	-34.323924	526.672125	701.958589	-145.476991	456.103933	598.953519	-14.488107	448.130041	510.856041	-34.762059	397.915104	442.309463	-46.537526	478.302447	505.481983	-62.753376	346.477824	335.065253	-61.374546	371.713981	354.797127	-146.331954	265.188871	320.734375	-112.738050	553.845559	257.464066	-89.531066	457.530017	240.936562	-30.007630	459.908940	997.881167	-400.660076	516.625626	933.225083	-385.137854	544.027462	948.978214	-367.563730	535.863546	846.450656	-384.250427	554.541181	726.686483	-364.558741	528.870377	702.071904	-258.949287	191.142308	522.201716	-401.170455	217.474890	504.932502	-315.478731	146.637352	566.919464	-359.237759	169.272057	352.719427	-414.787789	450.812346	658.257290	-396.270861	386.919641	601.660379	-386.343068	301.688878	579.400253	-399.135661	396.786508	581.324062	-348.192944	225.679877	288.519018	-344.118785	-133.509333	945.578433	-221.415885	26.693157	84.690475	-426.482839	18.343469	80.281433	-28.204376	
